# xmcd CD database file
#
# Track frame offsets:
#	150
#	21558
#	47514
#	79325
#	96559
#	130010
#	155969
#	166173
#	191055
#	213363
#
# Disc length: 3015 seconds
#
# Revision: 0
# Processed by: cddbd v1.5.2PL0 Copyright (c) Steve Scherf et al.
# Submitted via: CDex 1.70beta2
#
DISCID=8c0bc50a
DTITLE=Marta Raviglia Quartet - Don't Fence Me In
DYEAR=2008
DGENRE=Jazz
TTITLE0=1. CORNER POCKET 
TTITLE1=2. WHEN YOUR LOVER HAS GONE 
TTITLE2=3. AFRICAN FLOWER 
TTITLE3=4. THEY CAN'T TAKE THAT AWAY FROM ME 
TTITLE4=5. PEACE 
TTITLE5=6. DON'T FENCE ME IN 
TTITLE6=7. COMES LOVE 
TTITLE7=8. VERY EARLY 
TTITLE8=9. NEVER WILLIMARRY
TTITLE9=10. SOME OTHER TIME 
EXTD=YEAR: 2008
EXTT0=
EXTT1=
EXTT2=
EXTT3=
EXTT4=
EXTT5=
EXTT6=
EXTT7=
EXTT8=
EXTT9=
PLAYORDER=
